# xmcd CD database file
#
# Track frame offsets:
#	150
#	14200
#	37018
#	65768
#	88229
#	104544
#	134387
#	177958
#	207982
#	229323
#	260420
#	285565
#	302975
#	334928
#
# Disc length: 4636 seconds
#
# Revision: 5
# Processed by: cddbd v1.5.2PL0 Copyright (c) Steve Scherf et al.
# Submitted via: jetAudio 7
#
DISCID=df121a0e
DTITLE=Derek and The Dominos - Layla and Other Assorted Love Songs
DYEAR=1900
DGENRE=blues
TTITLE0=I Looked Away
TTITLE1=Bell Bottom Blues
TTITLE2=Keep On Growing
TTITLE3=Nobody Knows You When You're Down And Out
TTITLE4=I Am Yours 
TTITLE5=Anyday
TTITLE6=Key To The Highway
TTITLE7=Tell The Truth 
TTITLE8=Why Does Love Got To Be So Sad? 
TTITLE9=Have You Ever Loved A Woman
TTITLE10=Little Wing 
TTITLE11=It's Too Late 
TTITLE12=Layla
TTITLE13=Thorn Tree In The Garden
EXTD=
EXTT0=I Looked Away
EXTT1=Bell Bottom Blues
EXTT2=
EXTT3=
EXTT4=
EXTT5=
EXTT6=
EXTT7=
EXTT8=
EXTT9=
EXTT10=
EXTT11=
EXTT12=
EXTT13=
PLAYORDER=
